PathFileType	4	(X/Y/Z)	s07c0101.trc
DataRate	CameraRate	NumFrames	NumMarkers	Units	OrigDataRate	OrigDataStartFrame	OrigNumFrames
200	200	4	48	mm	200	1500	2000
Frame#	Time	racr			lacr			c7			jug			rlel			rdr			llel			ldr			s2			lic			ric			lasi			rasi			rpsi			lpsi			rgt			lgt			rth1			rth2			rth3			rth4			rlfc			rmfc			rsh1			rsh2			rsh3			rsh4			rlmal			rcal			rtoe			rmt5			lth1			lth2			lth4			lth3			llfc			lmfc			lsh1			lsh2			lsh3			lsh4			llmal			lcal			ltoe			lmt5			SBIKE			LBIKE			RBIKE			
		X1	Y1	Z1	X2	Y2	Z2	X3	Y3	Z3	X4	Y4	Z4	X5	Y5	Z5	X6	Y6	Z6	X7	Y7	Z7	X8	Y8	Z8	X9	Y9	Z9	X10	Y10	Z10	X11	Y11	Z11	X12	Y12	Z12	X13	Y13	Z13	X14	Y14	Z14	X15	Y15	Z15	X16	Y16	Z16	X17	Y17	Z17	X18	Y18	Z18	X19	Y19	Z19	X20	Y20	Z20	X21	Y21	Z21	X22	Y22	Z22	X23	Y23	Z23	X24	Y24	Z24	X25	Y25	Z25	X26	Y26	Z26	X27	Y27	Z27	X28	Y28	Z28	X29	Y29	Z29	X30	Y30	Z30	X31	Y31	Z31	X32	Y32	Z32	X33	Y33	Z33	X34	Y34	Z34	X35	Y35	Z35	X36	Y36	Z36	X37	Y37	Z37	X38	Y38	Z38	X39	Y39	Z39	X40	Y40	Z40	X41	Y41	Z41	X42	Y42	Z42	X43	Y43	Z43	X44	Y44	Z44	X45	Y45	Z45	X46	Y46	Z46	X47	Y47	Z47	X48	Y48	Z48	
1500	7.5000	503.450945	1404.919619	-112.436056	484.433673	1404.731886	-381.434115	465.123436	1453.730599	-243.319388	412.355880	1309.827387	-248.250696	512.183181	1092.828265	51.093217	715.330035	913.296903	-65.478577	497.018836	1094.968046	-536.929633	712.260504	912.459451	-426.708912	-125.144445	1215.512496	-215.238473	14.294338	1293.276861	-366.082083	63.188292	1240.574292	-83.546282	47.947128	1215.531293	-354.559146	77.597116	1192.602645	-105.345940	-91.193248	1251.651929	-162.872432	-97.093829	1273.886162	-268.545717	17.497501	1114.926761	-47.154457	-30.679791	1135.647038	-407.029181	136.940432	1026.018179	-51.298294	214.114107	986.436757	-65.155386	264.621103	917.088180	-66.040128	233.682235	1011.237452	-84.901590	340.223258	802.308336	-99.168172	325.006490	787.505374	-204.401807	238.038585	696.876984	-62.601490	203.922019	620.663499	-84.784342	131.602293	571.942534	-78.081782	217.192367	609.843832	-122.402998	38.662514	475.723597	-73.730670	-28.205570	505.651032	-102.606725	113.624096	253.580097	-127.323971	45.785810	298.410556	-54.304047	60.369758	1041.341876	-416.596879	140.769836	1004.268249	-417.773685	163.796064	1031.966612	-411.269322	193.238251	932.554482	-412.942833	317.467604	810.737718	-383.992622	310.005503	788.005701	-290.763310	284.318735	666.305689	-409.407279	286.644316	581.846782	-391.054990	302.819912	504.125964	-384.134854	286.701895	584.078517	-348.873980	208.189027	368.774144	-401.369520	144.138756	316.687301	-370.571989	431.628864	350.682498	-359.686812	359.000099	310.922601	-426.125939	-263.706592	977.900379	-234.969627	-82.683188	79.089875	-435.035670	-82.638892	78.983939	-37.530642	
1501	7.5050	502.156296	1406.417474	-111.304361	484.586375	1405.730692	-380.910641	464.224234	1455.276055	-242.684975	411.902160	1311.278307	-247.912283	512.556297	1093.755262	51.068465	715.508183	913.369508	-65.493360	498.038529	1096.164076	-536.482939	712.452753	912.454280	-426.586061	-124.845835	1214.736129	-217.745808	15.394520	1291.771932	-368.618254	62.447124	1240.201435	-85.610825	48.976267	1214.104739	-356.695003	77.180596	1192.718508	-107.088290	-91.528917	1251.060329	-165.287555	-96.518556	1272.856877	-271.487950	17.558399	1115.431672	-48.859577	-30.538471	1133.847269	-408.672994	138.653612	1029.037806	-51.676414	216.942528	991.416652	-65.375817	269.220568	923.478711	-65.970708	235.733023	1016.471931	-85.430283	346.863280	810.419084	-99.304418	330.700121	793.859333	-204.279043	245.513786	706.066329	-63.569124	209.992669	629.163599	-85.046975	137.401436	580.962955	-78.332566	223.251845	618.280807	-122.582282	44.594086	485.648143	-73.435314	-21.874837	517.222013	-103.052212	112.593502	261.058348	-128.600871	47.110466	308.415349	-54.337152	58.442201	1037.598567	-418.379745	137.868042	998.922905	-419.676072	161.526566	1026.024438	-413.065462	188.438188	925.915569	-414.916908	309.684885	801.170531	-385.596356	300.990711	777.352900	-292.607375	277.568822	656.210375	-410.943407	281.440251	571.828186	-392.445996	300.414703	493.338955	-384.188519	281.884364	574.170741	-350.315382	206.380722	357.448681	-401.614142	142.586931	305.301943	-370.667081	430.190150	340.165483	-359.721816	357.666137	300.218833	-426.274544	-263.719360	977.914704	-235.165278	-82.679222	79.068569	-435.057368	-82.626364	78.982404	-37.563276	
1502	7.5100	500.835314	1407.900740	-110.045731	484.680710	1406.792017	-380.409492	463.253759	1456.822265	-241.939410	411.474867	1312.697858	-247.488785	512.954260	1094.551665	50.912655	715.672318	913.480174	-65.577225	499.161376	1097.620906	-536.103208	712.640816	912.447190	-426.478025	-124.493694	1214.071527	-220.330966	16.465628	1290.469483	-371.060868	61.500725	1240.098679	-87.691519	50.122990	1212.772758	-358.809767	76.798172	1192.894272	-108.882696	-91.053773	1250.412944	-168.356572	-95.831805	1271.903746	-274.407718	17.741045	1116.200208	-50.157465	-30.228290	1132.038547	-410.320914	140.072548	1032.220201	-52.376730	219.307734	996.396638	-65.732530	273.359316	929.931476	-65.970114	237.469347	1021.979462	-85.870031	353.651974	818.643837	-99.308376	337.711132	801.613019	-204.803630	252.945054	715.303927	-64.539379	216.275861	637.904541	-85.279592	143.641331	589.947423	-78.474783	229.491452	626.854589	-122.770954	50.706796	495.806600	-73.355619	-15.292710	529.124488	-102.772700	113.486321	269.414861	-128.503338	48.974555	318.356319	-54.480405	56.578669	1033.957193	-420.174074	134.990176	993.708618	-421.631501	159.338661	1020.109395	-414.931264	183.655458	919.308724	-416.743254	301.593105	791.449186	-387.210436	295.324561	769.017677	-294.619875	270.221513	645.991521	-412.510147	275.552282	561.780563	-394.070631	295.305308	482.498595	-384.860518	276.699287	564.082628	-351.893955	204.220133	346.362147	-401.861050	140.560797	294.212198	-370.672459	428.380931	330.601572	-360.682471	355.724824	289.517045	-426.202457	-263.716520	977.916097	-235.444980	-82.660321	79.018824	-435.087820	-82.642753	78.987785	-37.566911	
1503	7.5150	499.411223	1409.296622	-108.627694	484.767852	1407.932399	-379.682620	462.303498	1458.385505	-241.054460	410.869912	1314.210308	-246.992261	513.348729	1095.199223	50.655832	715.807240	913.554101	-65.721204	500.497843	1099.112935	-535.586026	712.868332	912.391163	-426.392907	-123.990912	1213.423034	-223.013309	17.711069	1289.144371	-373.596260	60.454118	1240.572290	-88.941262	51.315014	1211.390985	-360.898967	76.349937	1193.314818	-110.589184	-90.995726	1249.871913	-171.240968	-94.970401	1270.976566	-277.368747	17.868293	1117.173440	-51.166332	-29.740598	1130.154176	-411.977615	141.186537	1035.418651	-53.107160	221.296546	1001.670052	-66.134592	276.807505	936.429734	-66.106559	239.019094	1028.032198	-85.143158	360.371238	827.354001	-99.215595	344.665098	810.201472	-203.863541	260.304413	724.571720	-65.511302	222.661487	646.677162	-85.481752	149.812802	599.193316	-78.512830	235.599264	635.581401	-123.006622	56.630858	505.473500	-73.567647	-9.092296	539.858317	-103.474939	115.105568	277.926425	-128.806360	51.495222	328.170857	-54.756603	54.780703	1030.322938	-421.940292	132.116776	988.241332	-423.509086	157.111473	1014.049946	-416.820855	178.726464	912.670821	-418.544454	293.101552	781.050275	-388.359699	287.289857	759.682311	-296.368009	262.407532	635.953046	-414.244526	269.188770	551.872993	-395.752000	287.864018	471.697681	-386.063687	271.160701	554.180790	-353.563725	201.482139	335.328420	-402.015986	138.027789	283.306632	-370.837751	425.551155	319.500419	-359.790868	353.178763	278.988704	-426.140914	-263.757095	977.778457	-235.324355	-82.664793	79.001025	-435.102164	-82.642538	79.018338	-37.595166	
